<svg width="184" height="17" viewBox="0 0 184 17" fill="none" xmlns="http://www.w3.org/2000/svg">
<path d="M25.7545 16.6198V0.217249H30.6389V16.6198H25.7545ZM138.486 16.6198L126.719 6.89776V16.6198H122.611V0.217249H126.108L137.709 9.77636V0.217249H141.816V16.6198H138.486ZM164.074 5.53994C161.853 4.45367 159.356 3.63898 156.081 3.63898C152.14 3.63898 149.198 5.64856 149.198 8.41853C149.198 11.2428 152.195 13.2524 156.025 13.2524C159.189 13.2524 161.742 12.4377 164.24 11.0799V15.1534C162.02 16.2396 159.134 17 155.859 17C149.143 17 143.87 13.6326 143.87 8.41853C143.87 3.25879 149.254 0 155.803 0C158.912 0 161.742 0.597438 164.074 1.52076V5.53994ZM57.8365 16.6198V0.217249H74.2106V3.7476H62.7765V7.82109H73.9885V11.3514H62.7765V16.6198H57.8365ZM167.015 16.6198V0.217249H184V3.7476H171.9V6.57188H183.778V10.1022H171.9V13.0895H183.945V16.6198H167.015ZM91.1952 10.4824L97.9668 16.6198H92.7493C91.5837 16.6198 90.8066 16.2396 90.2516 15.6965L85.6447 11.3514C85.5336 11.2428 85.4226 11.2428 85.2561 11.2428H82.1478V16.6741H77.2634V0.217249H87.8649C93.3599 0.217249 95.6911 2.60702 95.6911 5.32268C95.5801 8.41853 92.7493 9.88498 91.1952 10.4824ZM87.2543 7.76677C89.197 7.76677 90.1406 6.78914 90.1406 5.70288C90.1406 4.61661 89.308 3.7476 87.2543 3.7476H82.0368V7.76677H87.2543ZM49.2332 10.4824L56.0048 16.6198H50.7873C49.6217 16.6198 48.8446 16.2396 48.2896 15.6965L43.6827 11.3514C43.5716 11.2428 43.4606 11.2428 43.2941 11.2428H40.1858V16.6741H35.3014V0.217249H45.9029C51.3979 0.217249 53.7291 2.60702 53.7291 5.32268C53.6181 8.41853 50.7873 9.88498 49.2332 10.4824ZM45.2923 7.76677C47.235 7.76677 48.1786 6.78914 48.1786 5.70288C48.1786 4.61661 47.346 3.7476 45.2923 3.7476H40.0748V7.76677H45.2923ZM18.0947 16.6198L15.93 13.0351H6.60513L4.66244 16.6198H0L9.32489 0.217249H13.5988L24.1448 16.6198H18.0947ZM8.49231 9.61342H13.9318L11.1011 4.61661L8.49231 9.61342ZM115.729 16.6198L113.619 13.0351H104.516L102.629 16.6198H98.0778L107.181 0.217249H111.288L121.557 16.6198H115.729ZM106.348 9.61342H111.677L108.901 4.61661L106.348 9.61342Z" fill="#394557"/>
</svg>
