<svg width="176" height="33" fill="none" xmlns="http://www.w3.org/2000/svg">
  <path
    d="M59.359 12.011h3.98c-.058-3.5-2.935-5.916-7.307-5.916-4.305 0-7.46 2.378-7.44 5.945-.01 2.895 2.032 4.554 5.35 5.35l2.138.537c2.138.518 3.327 1.131 3.337 2.454-.01 1.439-1.372 2.417-3.48 2.417-2.158 0-3.712-.998-3.846-2.963h-4.017c.105 4.247 3.145 6.443 7.91 6.443 4.794 0 7.613-2.291 7.622-5.887-.01-3.27-2.473-5.005-5.887-5.772l-1.764-.422c-1.706-.393-3.135-1.026-3.106-2.435 0-1.266 1.122-2.196 3.154-2.196 1.985 0 3.203.901 3.356 2.445zM66.322 31.523h4.085V23.64h.124c.566 1.228 1.803 2.599 4.18 2.599 3.357 0 5.974-2.656 5.974-7.584 0-5.063-2.732-7.575-5.963-7.575-2.465 0-3.644 1.467-4.19 2.665h-.183v-2.473h-4.027v20.25zm3.999-12.887c0-2.627 1.112-4.305 3.097-4.305 2.023 0 3.096 1.755 3.096 4.305 0 2.57-1.093 4.353-3.096 4.353-1.966 0-3.097-1.726-3.097-4.353zM90.12 26.288c3.643 0 6.098-1.774 6.673-4.507l-3.778-.249c-.412 1.122-1.466 1.707-2.828 1.707-2.042 0-3.337-1.352-3.337-3.548v-.01h10.03V18.56c0-5.005-3.03-7.479-6.923-7.479-4.334 0-7.143 3.078-7.143 7.622 0 4.67 2.77 7.585 7.306 7.585zm-3.27-9.138c.087-1.678 1.362-3.02 3.174-3.02 1.774 0 3.001 1.266 3.01 3.02H86.85zM106.199 26.288c3.922 0 6.386-2.302 6.578-5.686h-3.855c-.24 1.572-1.275 2.454-2.675 2.454-1.908 0-3.145-1.6-3.145-4.42 0-2.78 1.247-4.372 3.145-4.372 1.496 0 2.455.988 2.675 2.455h3.855c-.173-3.404-2.752-5.638-6.597-5.638-4.468 0-7.23 3.097-7.23 7.613 0 4.478 2.714 7.594 7.249 7.594zM123.225 11.273h-2.771V7.744h-4.084v3.529h-2.014v3.068h2.014v7.67c-.02 2.886 1.946 4.315 4.909 4.19a7.953 7.953 0 002.215-.383l-.643-3.04c-.201.039-.633.135-1.016.135-.815 0-1.381-.307-1.381-1.439v-7.133h2.771v-3.068zM125.886 26h4.084v-8.332c0-1.812 1.323-3.059 3.126-3.059.566 0 1.342.096 1.726.22v-3.623a6.131 6.131 0 00-1.285-.144c-1.649 0-3.001.959-3.538 2.78h-.153v-2.57h-3.96V26zM146.378 19.73c.01 1.974-1.342 3.01-2.809 3.01-1.544 0-2.541-1.083-2.551-2.819v-8.648h-4.084v9.377c.009 3.442 2.023 5.542 4.985 5.542 2.215 0 3.807-1.141 4.469-2.867h.153V26h3.921V11.273h-4.084v8.456zM153.73 26h4.084v-8.84c0-1.63 1.036-2.714 2.397-2.714 1.342 0 2.244.92 2.244 2.369V26h3.96v-8.994c0-1.524.872-2.56 2.358-2.56 1.304 0 2.282.815 2.282 2.455V26h4.075v-9.904c0-3.193-1.898-5.015-4.64-5.015-2.158 0-3.836 1.103-4.44 2.79h-.153c-.47-1.707-1.975-2.79-3.998-2.79-1.985 0-3.49 1.055-4.104 2.79h-.173v-2.598h-3.892V26z"
    fill="#000"
  />
  <path
    d="M28.875 22V11A2.75 2.75 0 0027.5 8.621l-9.625-5.5a2.75 2.75 0 00-2.75 0L5.5 8.621A2.75 2.75 0 004.125 11v11A2.75 2.75 0 005.5 24.379l9.625 5.5a2.75 2.75 0 002.75 0l9.625-5.5A2.752 2.752 0 0028.875 22z"
    stroke="#5A67D8"
    stroke-width="3"
    stroke-linecap="round"
    stroke-linejoin="round"
  />
  <path
    d="M4.496 9.57L16.5 16.514 28.504 9.57M16.5 30.36V16.5"
    stroke="#5A67D8"
    stroke-width="3"
    stroke-linecap="round"
    stroke-linejoin="round"
  />
</svg>
