<svg width="103" height="34" viewBox="0 0 103 34" fill="none" xmlns="http://www.w3.org/2000/svg">
  <path d="M44.0779 17.8428C44.0779 22.7209 40.2618 26.3154 35.5786 26.3154C30.8954 26.3154 27.0793 22.7209 27.0793 17.8428C27.0793 12.9304 30.8954 9.37024 35.5786 9.37024C40.2618 9.37024 44.0779 12.9304 44.0779 17.8428ZM40.3573 17.8428C40.3573 14.7945 38.1456 12.7089 35.5786 12.7089C33.0116 12.7089 30.7999 14.7945 30.7999 17.8428C30.7999 20.8606 33.0116 22.9768 35.5786 22.9768C38.1456 22.9768 40.3573 20.8568 40.3573 17.8428Z" fill="#394557"/>
  <path d="M62.4135 17.8428C62.4135 22.7209 58.5974 26.3154 53.9142 26.3154C49.231 26.3154 45.4149 22.7209 45.4149 17.8428C45.4149 12.9342 49.231 9.37024 53.9142 9.37024C58.5974 9.37024 62.4135 12.9304 62.4135 17.8428ZM58.6929 17.8428C58.6929 14.7945 56.4812 12.7089 53.9142 12.7089C51.3472 12.7089 49.1355 14.7945 49.1355 17.8428C49.1355 20.8606 51.3472 22.9768 53.9142 22.9768C56.4812 22.9768 58.6929 20.8568 58.6929 17.8428Z" fill="#394557"/>
  <path d="M79.9851 9.88211V25.093C79.9851 31.35 76.2951 33.9055 71.9327 33.9055C67.8263 33.9055 65.3548 31.159 64.4227 28.9129L67.662 27.5645C68.2388 28.9435 69.6522 30.5707 71.9289 30.5707C74.7213 30.5707 76.4517 28.848 76.4517 25.6049V24.3863H76.3218C75.4891 25.4139 73.8847 26.3115 71.8601 26.3115C67.6238 26.3115 63.7428 22.6215 63.7428 17.8734C63.7428 13.0908 67.6238 9.37024 71.8601 9.37024C73.8809 9.37024 75.4852 10.2679 76.3218 11.2649H76.4517V9.88593H79.9851V9.88211ZM76.7153 17.8734C76.7153 14.89 74.7251 12.7088 72.1925 12.7088C69.6255 12.7088 67.4749 14.89 67.4749 17.8734C67.4749 20.8261 69.6255 22.9768 72.1925 22.9768C74.7251 22.9768 76.7153 20.8261 76.7153 17.8734Z" fill="#394557"/>
  <path d="M85.8104 0.966431V25.7959H82.1815V0.966431H85.8104Z" fill="#394557"/>
  <path d="M99.9518 20.6313L102.84 22.5566C101.908 23.9355 99.6615 26.3115 95.7804 26.3115C90.9672 26.3115 87.3726 22.5909 87.3726 17.839C87.3726 12.8005 90.9977 9.36646 95.364 9.36646C99.7608 9.36646 101.911 12.8655 102.614 14.7563L103 15.7189L91.6739 20.4098C92.541 22.1096 93.8895 22.9768 95.7804 22.9768C97.6751 22.9768 98.9891 22.0447 99.9518 20.6313ZM91.0627 17.5831L98.6339 14.4393C98.2175 13.3812 96.9645 12.6439 95.49 12.6439C93.5991 12.6439 90.9672 14.3132 91.0627 17.5831Z" fill="#394557"/>
  <path d="M13.3429 15.6387V12.0442H25.4558C25.5743 12.6706 25.6354 13.4117 25.6354 14.2139C25.6354 16.9107 24.8981 20.2455 22.5222 22.6215C20.2111 25.028 17.2583 26.3115 13.3467 26.3115C6.09657 26.3115 0 20.4059 0 13.1558C0 5.90558 6.09657 0 13.3467 0C17.3576 0 20.2149 1.5738 22.3617 3.62509L19.8253 6.16151C18.2859 4.71759 16.2002 3.59453 13.3429 3.59453C8.04854 3.59453 3.90776 7.86137 3.90776 13.1558C3.90776 18.4502 8.04854 22.717 13.3429 22.717C16.777 22.717 18.7328 21.338 19.9857 20.0851C21.0018 19.069 21.6703 17.6174 21.9339 15.6349L13.3429 15.6387Z" fill="#394557"/>
</svg>
