<svg width="117" height="33" viewBox="0 0 117 33" fill="none" xmlns="http://www.w3.org/2000/svg">
<path d="M115.168 13.3417C113.751 11.493 111.689 10.5686 108.949 10.5686C104.67 10.5686 101.13 12.1401 98.3281 15.2521C95.7113 18.0868 94.4799 21.1681 94.6954 24.5266C94.6954 24.7731 94.7262 25.0196 94.757 25.2661C94.6031 25.3277 94.4799 25.3894 94.326 25.451C91.0012 26.8992 87.9227 27.6078 85.0904 27.6078C83.6743 27.6078 82.6276 27.1148 81.9195 26.1289C85.7061 25.5126 88.877 24.0336 91.3706 21.7227C93.7103 19.5966 94.8186 17.563 94.6646 15.5602C94.4184 12.4174 92.3865 10.8768 88.5384 10.8768C84.3824 10.8768 80.7805 12.4482 77.7328 15.591C74.9621 18.4566 73.546 21.4762 73.5152 24.6499C73.5152 25.1737 73.546 25.6975 73.6075 26.1905C72.9611 26.6218 72.4377 26.8375 72.1298 26.8375C71.391 26.8375 70.9292 26.6835 70.7137 26.3754C70.529 26.0672 70.4367 25.5126 70.4674 24.6807C70.4674 24.3725 70.7137 23.1709 71.2063 21.0756C71.6989 18.9804 71.9451 17.3782 72.0067 16.2997C72.0991 14.6975 71.7604 13.465 71.0524 12.6022C70.2212 11.5546 68.8666 11.0924 66.9887 11.2465C65.4187 11.3697 63.9102 11.9552 62.4633 13.0028C61.6013 13.619 60.7085 14.4818 59.8158 15.5294C59.5079 15.8067 59.2001 16.0532 58.923 16.2997C58.9538 14.6975 58.6459 13.465 57.9686 12.6022C57.1374 11.5546 55.7829 11.0924 53.8434 11.2465C51.5961 11.4314 49.5951 12.3249 47.7787 13.8964C47.0091 14.5742 46.301 15.3445 45.7161 16.2381C45.8085 15.8992 45.8393 15.4986 45.8393 15.1289C45.8393 13.9272 45.5314 12.8487 44.8849 11.9244C44.2692 11 43.438 10.5686 42.4221 10.6611C41.8372 10.6919 40.7289 11.493 39.0665 13.0028C36.7884 15.1288 35.557 16.2689 35.3723 16.423L36.7884 18.0252C37.8967 17.2241 38.5432 16.8235 38.7894 16.8235C39.2204 16.8235 39.4052 17.1625 39.3128 17.8711C39.282 18.888 39.0973 20.3053 38.7587 22.1232C38.5432 23.2633 38.42 24.2185 38.3277 25.0504C38.2969 25.0504 38.2969 25.0812 38.2661 25.0812C36.85 26.2521 35.8648 26.8067 35.3415 26.8067C34.0793 26.8067 33.4944 25.9748 33.5252 24.2801C34.1101 20.6134 34.6642 17.5938 35.1568 15.1905C35.3107 13.7731 35.0952 12.6331 34.4795 11.7703C33.8638 10.8767 32.9095 10.507 31.6165 10.6303C30.7853 10.7227 29.5231 11.493 27.8607 12.972C27.2758 13.4958 26.6909 14.0196 26.1059 14.5742C25.9828 11.8011 24.7206 10.3838 22.3194 10.2913C18.6867 10.1681 16.2239 12.2325 14.9617 16.4538C15.639 16.1765 16.2854 16.0224 16.9012 16.0224C18.2249 16.0224 18.8098 16.7619 18.6559 18.2717C18.5636 19.1653 17.9786 20.4902 16.9012 22.2157C15.7929 23.9412 14.9925 24.8039 14.4383 24.8039C13.7303 24.8039 13.0838 23.479 12.4989 20.7983C12.3142 20.028 11.9447 18.0252 11.4522 14.7899C10.9904 11.8011 9.72819 10.4146 7.69637 10.5994C6.83438 10.6919 5.5414 11.4622 3.81743 12.9412C2.55523 14.0812 1.29304 15.2213 6.10352e-05 16.3613L1.23147 17.9636C2.40131 17.1317 3.07858 16.7311 3.29408 16.7311C4.18685 16.7311 5.01805 18.1485 5.81847 20.9524L7.94265 28.7171C8.98935 31.5518 10.2823 32.9384 11.8216 32.9384C14.2844 32.9384 17.3014 30.6275 20.8417 26.0056C23.3353 22.7703 24.9669 20.0588 25.7057 17.8403C26.6909 17.1008 27.3066 16.7311 27.5221 16.7311C28.2301 16.7311 28.5688 17.2549 28.5688 18.2717C28.5688 18.4566 28.1993 19.9048 27.4297 22.6162C26.6601 25.3277 26.2599 27.3305 26.2291 28.6247C26.1983 29.888 26.5061 30.9048 27.1526 31.6751C27.7991 32.4454 28.7227 32.8459 29.9541 32.8459C32.5708 32.8459 35.2184 31.7059 37.8351 29.4258C38.0814 29.2101 38.2969 29.0252 38.5124 28.8095C38.7279 29.7031 39.0665 30.4118 39.5899 30.9664C40.7289 32.1681 42.6376 32.7535 45.3159 32.6611C44.9773 31.7983 44.8234 30.2577 44.8849 28.07C45.0081 25.6359 45.6238 23.2941 46.7628 21.0756C47.9019 18.8263 48.9486 17.7171 49.9337 17.7171C51.0728 17.7171 51.5961 18.4566 51.5345 19.9048C51.5037 20.8908 51.319 22 50.9496 23.2633C50.611 24.5266 50.3955 25.7591 50.3647 27.0224C50.2723 29.0252 50.7341 30.4426 51.7192 31.3053C52.7967 32.2913 54.7362 32.7227 57.4453 32.6611C57.0451 31.7675 56.8604 30.4734 56.9527 28.7787C57.0759 26.3754 57.8763 23.9104 59.3848 21.3529C60.8009 18.9188 62.0323 17.7171 63.0482 17.7171C64.0025 17.7171 64.4335 18.4566 64.4028 19.9356C64.372 20.9216 64.1257 22.2773 63.6639 24.0644C63.2021 25.8207 62.9559 27.3305 62.9251 28.5938C62.8327 31.4286 64.0949 32.8151 66.6193 32.8151C69.236 32.8151 71.8836 31.6751 74.5003 29.395L74.6235 29.2717L74.9005 29.7339C76.2551 31.8599 78.5332 32.9076 81.704 32.9076C85.9832 32.9076 90.2008 31.7059 94.326 29.3333C94.7878 29.056 95.2188 28.8095 95.6498 28.5322C95.9268 29.056 96.2039 29.549 96.5733 30.0112C98.1742 32.014 100.545 33 103.623 33C107.348 33 110.457 31.6751 112.982 29.056C115.475 26.437 116.83 23.3249 116.984 19.7199C117.107 17.1933 116.522 15.0364 115.168 13.3417ZM80.9652 23.9412C80.9344 23.4482 80.9344 23.1709 80.9652 23.1709C80.996 21.6919 81.6425 20.1513 82.8431 18.5182C84.0437 16.8852 85.2444 16.084 86.4142 16.084C87.307 16.084 87.738 16.6078 87.7072 17.6555C87.6764 18.4258 87.0915 19.4426 85.9524 20.7059C84.5363 22.1541 82.8739 23.2325 80.9652 23.9412ZM110.365 19.6274C110.273 21.507 109.719 23.3249 108.672 25.0504C107.41 27.1457 105.901 28.1625 104.146 28.1625C103.346 28.1625 102.761 27.7311 102.33 26.8683C101.93 26.1288 101.776 25.2661 101.807 24.2801C101.868 22.2773 102.484 20.3978 103.562 18.6106C104.855 16.4538 106.486 15.3754 108.487 15.3754C109.103 15.3754 109.595 15.8067 109.934 16.7003C110.242 17.5938 110.396 18.5798 110.365 19.6274ZM28.7227 4.34454C28.7535 3.32773 29.3692 2.34174 30.5082 1.41737C31.6781 0.492999 32.9403 0 34.3564 0C35.1876 0 35.8648 0.308125 36.419 0.955184C36.9731 1.60224 37.2194 2.2493 37.1886 2.92717C37.1578 3.91317 36.6653 4.83754 35.7109 5.73109C34.6642 6.7479 33.402 7.2409 31.9551 7.2409C29.7386 7.27171 28.6611 6.31653 28.7227 4.34454Z" fill="#394557"/>
</svg>
