<svg width="174" height="23" viewBox="0 0 174 23" fill="none" xmlns="http://www.w3.org/2000/svg">
<path d="M38.1657 11.0605L35.1641 11.9033C34.8067 10.7094 33.9134 10.007 32.7339 10.007C29.9824 10.007 27.3738 12.0087 27.3738 15.6601V19.5228H32.6627V22.5077H20.8698V19.5228H24.2289V10.5335H21.5847V7.54862H27.3378V10.0769C28.3027 8.32143 30.2682 7.05749 32.8768 7.05749C35.8072 7.05794 37.6294 8.70805 38.1657 11.0605ZM17.7961 16.7142C17.7961 20.4365 14.8657 22.5082 10.0771 22.5082H0V19.5233H2.39408V5.12661H0V2.14169H9.5768C13.972 2.14169 16.6522 4.14345 16.6522 7.61994C16.6522 9.90247 15.2943 11.3068 13.579 11.9742C16.0447 12.6411 17.7961 14.3617 17.7961 16.7142ZM5.68144 10.6748H9.255C11.9353 10.6748 13.3288 9.69121 13.3288 7.90071C13.3288 6.07433 11.8997 5.12661 9.21939 5.12661H5.68144V10.6748ZM14.4727 16.5383C14.4727 14.6075 12.7929 13.5539 9.50559 13.5539H5.6819V19.5233H9.75572C12.9002 19.5233 14.4727 18.5047 14.4727 16.5383ZM69.9 0H66.362V4.56461H69.9V0ZM54.4619 19.5233H56.6775V22.5082H51.2457V20.928C50.4237 22.2274 48.2085 22.9998 46.028 22.9998C42.8831 22.9998 40.1672 21.4201 40.1672 18.2948C40.1672 14.6079 43.848 13.2031 47.2071 13.2031C48.8512 13.2031 50.2091 13.5193 51.2457 13.8001V12.9574C51.2457 10.8502 49.5304 9.97244 47.6722 9.97244C45.9212 9.97244 44.4204 10.6748 43.2049 11.7629L41.1322 9.55128C42.5618 8.25191 44.5984 7.05794 47.6717 7.05794C51.4954 7.05794 54.4614 9.0597 54.4614 12.8515V19.5233H54.4619ZM51.2457 16.4684C50.2452 16.1172 48.7439 15.8364 47.3504 15.8364C45.3489 15.8364 43.4194 16.4684 43.4194 18.2593C43.4194 19.5932 44.634 20.2256 46.3138 20.2256C48.6367 20.2256 51.2453 18.9962 51.2453 16.8895L51.2457 16.4684ZM154.452 15.5906V16.1172H141.337C141.873 18.6105 143.982 20.1202 146.733 20.1202C149.02 20.1202 150.985 19.2075 152.057 18.0485L154.166 20.2256C152.593 21.8408 149.806 22.9993 146.697 22.9993C141.587 22.9993 138.013 19.6282 138.013 15.0286C138.013 10.429 141.48 7.05794 146.304 7.05794C151.093 7.05794 154.452 10.6748 154.452 15.5906ZM150.843 13.4839C150.378 11.3418 148.449 9.90202 146.305 9.90202C143.874 9.90202 142.016 11.3768 141.481 13.4839H150.843ZM130.723 7.05794C128.115 7.05794 126.149 8.32187 125.184 10.0774V7.54907H119.431V10.534H122.076V19.5233H118.716V22.5082H130.509V19.5233H125.22V15.6606C125.22 12.0087 127.83 10.0074 130.581 10.0074C131.76 10.0074 132.654 10.7098 133.011 11.9038L136.013 11.061C135.476 8.70805 133.654 7.05794 130.723 7.05794ZM174 16.1172H160.885C161.422 18.6105 163.53 20.1202 166.281 20.1202C168.569 20.1202 170.534 19.2075 171.606 18.0485L173.714 20.2256C172.142 21.8408 169.355 22.9993 166.245 22.9993C161.135 22.9993 157.562 19.6282 157.562 15.0286C157.562 10.429 161.028 7.05794 165.852 7.05794C170.641 7.05794 174 10.6748 174 15.5906V16.1172ZM170.391 13.4839C169.926 11.3418 167.997 9.90202 165.852 9.90202C163.423 9.90202 161.564 11.3768 161.028 13.4839H170.391ZM109.353 20.0853C107.459 20.0853 105.815 19.1375 105.815 16.8196V10.5344H113.212V7.54952H105.815V2.14169H102.67V7.54952H98.7038V10.5344H102.67V16.9254C102.67 20.9285 105.529 22.9998 109.353 22.9998C112.319 22.9998 114.463 21.6304 115.857 20.1557L113.748 18.014C112.641 19.1021 111.14 20.0853 109.353 20.0853ZM69.9 7.54907H61.8952V10.534H66.755V19.5233H60.3939V22.5082H75.7604V19.5233H69.8995L69.9 7.54907ZM96.0231 12.5707C96.0231 9.16465 93.593 7.05794 90.1983 7.05794C87.8399 7.05794 85.9104 8.00612 84.9811 9.48041V7.54907H79.6922V10.534H81.8722V19.5233H79.5498V22.5082H87.4469V19.5233H85.0172V14.537C85.0172 11.8334 87.4108 10.0774 89.8058 10.0774C91.271 10.0774 92.8791 10.8152 92.8791 13.4135V19.5237H90.4489V22.5086H98.3465V19.5237H96.0236L96.0231 12.5707Z" fill="#394557"/>
</svg>
